<svg xmlns="http://www.w3.org/2000/svg" width="844.67" height="630.248"><path fill="#e6e6e6" d="M839.462 39.155H300.98a2.142 2.142 0 0 1 0-4.283h538.482a2.142 2.142 0 0 1 0 4.283ZM395.812 259.21h217.25a1 1 0 0 1 1 .999v126.324a1 1 0 0 1-1 1h-217.25V259.208Z"/><path fill="#fff" d="M612.807 388.215 395.526 260.178l.572-1.938L613.38 386.277a1.01 1.01 0 1 1-.572 1.938Z"/><path fill="#fff" d="m396.098 388.501-.572-1.938 217.281-128.037a1.01 1.01 0 1 1 .572 1.938L396.099 388.501Z"/><rect width="176.609" height="9.461" x="416.511" y="132.839" fill="#e6e6e6" rx="4.73" ry="4.73"/><rect width="221.548" height="9.461" x="394.041" y="162.371" fill="#e6e6e6" rx="4.73" ry="4.73"/><rect width="221.548" height="9.461" x="394.041" y="191.902" fill="#6c63ff" rx="4.73" ry="4.73"/><path fill="#e6e6e6" d="M811.975 291.594c-.017 36.52-23.095 69.046-57.56 81.124-.731.263-1.463.501-2.203.732-45.204 14.451-93.564-10.478-108.015-55.682-14.45-45.204 10.479-93.564 55.683-108.015s93.563 10.479 108.014 55.683a85.93 85.93 0 0 1 4.08 26.158Z"/><path fill="#ffb6b6" d="M610.82 203.26a7.239 7.239 0 0 0 7.862 7.837l10.582 23.447 7.144-11.298-11.143-20.534a7.278 7.278 0 0 0-14.445.549Z"/><path fill="#6c63ff" d="M715.098 291.562a18.119 18.119 0 0 0-9.237-12.06 5.331 5.331 0 0 0-.293-.16l-48.34-24.527-4.287-8.362-17.328-33.756-4.248 1.265-10.04 2.984-.231.063 16.643 56.008 3.819 2.928 43.255 33.08 1.408 1.082c7.186 5.485 17.303 4.89 23.796-1.4a17.376 17.376 0 0 0 1.79-2.005 18.201 18.201 0 0 0 3.293-15.14Z"/><path fill="#6c63ff" d="m741.973 353.076-.255-9.229-.732-26.763c2.65-17.129 4.527-19.03-8.25-30.74a3.584 3.584 0 0 1-2.347-1.703c-1.161-2.371 1.631-6.397-.78-12.594l-19.021 1.09-4.726 6.364-19.014 25.618a43.114 43.114 0 0 0-2.037 3.906c-8.139 17.677 2.896 27.073 3.755 28.688l5.267 16.588 2.904 16.086.938 2.236 2.65.97a86.27 86.27 0 0 0 51.887-.143 136.63 136.63 0 0 0-10.24-20.374Z"/><path fill="#ffb6b6" d="M778.815 418.135a7.239 7.239 0 0 0-4.872-9.973l-2.346-25.618-10.442 8.347 3.828 23.047a7.278 7.278 0 0 0 13.832 4.197Z"/><path fill="#6c63ff" d="M742.434 292.525a18.176 18.176 0 0 0-12.045-7.884 17.906 17.906 0 0 0-3.198-.287c-3.574 0-7.07 1.055-10.048 3.031a17.44 17.44 0 0 0-2.633 2.133c-7.23 7.002-7.415 18.54-.412 25.77l.006.006 27.614 28.553 10.064 10.406 2.634 18.465 4.05 28.41 4.422.191 10.47.461.239.008 1.742-39.81.812-18.56-33.717-50.893Z"/><path fill="#2f2e41" d="M704.698 228.377c-6.725 13.256-2.332 28.61 10.148 36.684 13.495 8.73 31.016 6.819 36.683-10.148 6.312-18.894 1.127-27-10.147-36.683-13.212-11.348-29.417-4.175-36.684 10.147Z"/><path fill="#ffb6b6" d="M737.804 257.906c-7.133 9.35-20.495 11.147-29.844 4.014-9.338-7.123-11.144-20.462-4.038-29.813l.185-.243c7.34-9.187 20.739-10.685 29.926-3.344 8.979 7.173 10.645 20.177 3.765 29.382l.006.004Z"/><path fill="#2f2e41" d="M698.181 226.231a29.094 29.094 0 0 0 12.281 6.96 12.724 12.724 0 0 1 3.237-2.683 13.612 13.612 0 0 0-1.188 3.843c2.053 4.26 10.438 7.323 18.452 10.455l10.614-18.732-14.05-7.96c-11.288-7.806-24.578-4.475-29.346 8.117ZM749.584 218.253a6.544 6.544 0 0 1 6.186.904 13.788 13.788 0 0 1 4.038 4.912 35.218 35.218 0 0 1 3.662 9.979c.606 3.021.503 6.674-2.208 8.251-2.262 1.316-5.496.487-7.575-1.269a16.829 16.829 0 0 1-4.264-6.633c-1.015-2.41-1.974-4.908-3.777-6.91l1.873.875a16.369 16.369 0 0 1-.815-5.575 5.4 5.4 0 0 1 2.88-4.534Z"/><path fill="#2f2e41" d="m725.284 220.708 15.073 8.54c8.487 4.81 11.468 15.589 6.66 24.076-6.972 12.3-22.153 17.282-35.056 11.505l13.773-12.16-18.685 9.52-3.989-2.26c20.039-3.643 23.904-19.362 22.224-39.22ZM753.757 235.72c2.537 2.952 6.508 4.1 10.091 5.637a42.452 42.452 0 0 1 24.663 31.014c.991 5.527.861 11.249 2.426 16.637 1.555 5.388 5.407 10.674 10.934 11.61 3.74.638 7.49-.806 11.007-2.232 1.935-.778 3.87-1.558 5.805-2.342-2.018-5.064-4.033-10.128-6.045-15.192a76.99 76.99 0 0 0 11.211 13.118 36467.82 36467.82 0 0 1 20.821-8.388c-17.09.065-14.174-16.525-17.997-33.17-2.102-9.148-19.997-15.341-23.506-24.044-5.48-13.643-20.984-20.261-34.627-14.78a26.622 26.622 0 0 0-13.663 12.355c-3.508 1.398-3.61 6.86-1.12 9.776Z"/><path fill="#ffb6b6" d="M257.31 395.972a9.355 9.355 0 0 1 2.79-13.97l-4.88-46.372 12.494-4.504 5.394 55.119a9.342 9.342 0 0 1-15.798 9.728Z"/><path fill="#3f3d56" d="M250.628 225.961s20.283 9.897 20.349 21.531 1.746 22.157.159 26.66 4.033 37.222 1.402 40.462 2.79 4.9-.059 10.445-4.11 6.589-3.066 7.85 2.578 25.301 2.578 25.301l-16.714 2.09-17.78-77.591 13.131-56.748Z"/><path fill="#ffb6b6" d="M154.172 400.683a9.355 9.355 0 0 0-.554-14.237l12.131-45.022-11.628-6.417-14.017 53.579a9.342 9.342 0 0 0 14.068 12.097Z"/><path fill="#3f3d56" d="M187.575 233.852s-21.59 6.575-23.489 18.053-5.217 21.605-4.36 26.3-9.852 36.122-7.765 39.736-3.527 4.398-1.588 10.323 3.02 7.155 1.79 8.236-6.535 24.578-6.535 24.578l16.175 4.7 29.791-73.818-4.019-58.108Z"/><path fill="#ffb6b6" d="m270.487 602.109 14.4-.001 6.851-55.544-21.253.001.002 55.544z"/><path fill="#2f2e41" d="M289.68 603.405v-9.762l-3.786.23-15.41.914-3.567.219-2.727 32.696-.146 1.752h10.225l.328-1.74 1.485-7.912 3.835 7.912.84 1.74h27.108a6.125 6.125 0 0 0 6.086-6.098c1.145-5.344-21.399-16.896-24.272-19.95Z"/><path fill="#ffb6b6" d="m101.78 586.434 12.525 7.106 33.369-44.929-18.485-10.487-27.409 48.31z"/><path fill="#2f2e41" d="m117.839 597.027 4.808-8.485-3.384-1.667-13.864-6.805-3.214-1.582-15.788 23.116-3.712 5.428 4.2 2.386 4.686 2.666 6.354-7.498-.706 10.7 22.142 12.574h.012l1.424.803a6.096 6.096 0 0 0 8.302-2.3c3.627-4.09-10.274-25.246-11.26-29.336ZM199.024 329.455c-31.916 1.147-43.133 131.274-33.387 133.635l-45.483 84.764 64.739 29.02 42.567-147.802 7.094 54.391-9.459 86.317 41.846 10.12 28.944-2.068c-7.52-102.888-26.3-211.402-41.861-253.377l-55 5Z"/><path fill="#3f3d56" d="m184.372 338.579-.21.79c20.4 11.35 34.33 8.921 56.63 2.051l16.28-3.421c3.554-4.634.658-9.166-3.28-13.579l9.76-80.271c-.065-10.4-8.55-18.778-18.95-18.712-.426.003-.853.02-1.28.052l-14.66-10.86-20.87.72-13.96 15.42-8.34 2.98-6.48 2.31c-1.31 1.18-2.74 2.54-4.11 4.04l10.25 61 4.36 18.24c-5.844 6.664-9.064 13.168-5.14 19.24Z"/><path fill="#f2f2f2" d="M65.974 619.38a50.702 50.702 0 0 1-36.9-23.313c-5.235-8.49-7.937-18.575-10.55-28.327-.76-2.838-1.547-5.772-2.38-8.601a16.181 16.181 0 0 1 5.344-17.327 15.908 15.908 0 0 1 17.734-1.83l.61.325 1.072 24.078c1.588-3.226 5.071-10.513 7.83-17.79l.232-.609.529.382a81.387 81.387 0 0 1 14.955 13.897 83.882 83.882 0 0 1 17.754 68.255l-.134.714-16.096-9.854Z"/><path fill="#ccc" d="M0 629.058a1.186 1.186 0 0 0 1.183 1.19H843.48a1.19 1.19 0 1 0 0-2.38H1.19A1.186 1.186 0 0 0 0 629.051v.007Z"/><path fill="#2f2e41" d="m247.908 200.935.02-.005a4.257 4.257 0 0 0 3.027-5.205l-6.063-22.97a31.748 31.748 0 0 0-5.584-11.34 32.26 32.26 0 0 0-20.738-12.148 31.767 31.767 0 0 0-12.715.696c-16.97 4.45-21.71 10.064-22.668 38.786s6.073 23.005 6.073 23.005c.145.554.4 1.073.751 1.526a4.334 4.334 0 0 0 2.791 1.63 4.277 4.277 0 0 0 1.7-.094c21.193-2.181 42.655-4.168 53.41-13.882l-.004.001Z"/><path fill="#ffb6b6" d="M198.082 176.685c-3.11 12.554 4.546 25.252 17.1 28.362a23.418 23.418 0 0 0 17.691-2.658 23.145 23.145 0 0 0 10.615-14.337c3.1-12.556-4.567-25.248-17.123-28.348a23.418 23.418 0 0 0-17.648 2.647 23.145 23.145 0 0 0-10.635 14.335Z"/><path fill="#2f2e41" d="M252.67 172.702a25.115 25.115 0 0 0-4.416-8.97c-2.924-7.29-7.51-13.181-16.398-9.604a25.126 25.126 0 0 0-9.993.538l-4.604 1.19-.155.04c-13.386 3.543-21.366 17.266-17.824 30.652l.122.46 9.736-2.527.87-10.14 3.114 9.107 5.03-1.304.438-5.115 1.57 4.591c9.536 3.705 20.588.03 32.628-8.456l-.117-.462Z"/><path fill="#2f2e41" d="M230.333 204.8c.349.703.493 1.489.416 2.269a4.284 4.284 0 0 1-.755 2.064 4.25 4.25 0 0 1-3.164 1.801l-3.617.284-7.436-8.903 2.456 9.304-16.44 1.318-10.422-39.483 26.343-6.819-.45.927a18.716 18.716 0 0 0-1.747 9.987 30.509 30.509 0 0 0 2.838 9.983 55.02 55.02 0 0 0 5.388 9.06 81.084 81.084 0 0 0 5.91 7.226c.272.294.5.625.68.982Z"/><g fill="#3f3d56"><ellipse cx="360.758" cy="8.645" rx="8.457" ry="8.645"/><ellipse cx="389.972" cy="8.645" rx="8.457" ry="8.645"/><ellipse cx="419.186" cy="8.645" rx="8.457" ry="8.645"/><path d="M452.497 15.478c-.26 0-.519-.1-.715-.3l-5.706-5.834a1 1 0 0 1 0-1.398l5.706-5.833a1.001 1.001 0 0 1 1.43 1.399l-5.022 5.133 5.022 5.134a1 1 0 0 1-.715 1.699ZM462.086 15.478a1 1 0 0 1-.715-1.7l5.021-5.133-5.021-5.133a1 1 0 1 1 1.43-1.399l5.705 5.833a1 1 0 0 1 0 1.398l-5.705 5.833c-.196.2-.456.3-.715.3ZM760.596 1h-10.61c-1.21 0-2.19.98-2.19 2.19v10.62c0 1.21.98 2.19 2.19 2.19h10.61c1.21 0 2.2-.98 2.2-2.19V3.19c0-1.21-.99-2.19-2.2-2.19ZM734.596 1h-10.61c-1.21 0-2.19.98-2.19 2.19v10.62c0 1.21.98 2.19 2.19 2.19h10.61c1.21 0 2.2-.98 2.2-2.19V3.19c0-1.21-.99-2.19-2.2-2.19ZM785.096 1.5h-10.61c-1.21 0-2.19.98-2.19 2.19v10.62c0 1.21.98 2.19 2.19 2.19h10.61c1.21 0 2.2-.98 2.2-2.19V3.69c0-1.21-.99-2.19-2.2-2.19ZM625.174 5.54h-84.81a2.67 2.67 0 1 0 0 5.34h84.81c1.47 0 2.67-1.2 2.67-2.67s-1.2-2.67-2.67-2.67Z"/></g></svg>